<?xml version="1.0" encoding="utf-8"?>
<!-- Generator: Adobe Illustrator 15.0.0, SVG Export Plug-In . SVG Version: 6.00 Build 0)  -->
<!DOCTYPE svg PUBLIC "-//W3C//DTD SVG 1.1//EN" "http://www.w3.org/Graphics/SVG/1.1/DTD/svg11.dtd">
<svg version="1.1" id="Layer_1" xmlns="http://www.w3.org/2000/svg" xmlns:xlink="http://www.w3.org/1999/xlink" x="0px" y="0px"
	 width="300px" height="293.925px" viewBox="0 0 300 293.925" enable-background="new 0 0 300 293.925" xml:space="preserve">
<g>
	<rect x="147.305" fill="#3D3D3D" width="5.391" height="291.228"/>
	<rect x="2.697" y="144.267" fill="#3D3D3D" width="294.605" height="5.391"/>
	<rect x="222.305" fill="#3D3D3D" width="5.391" height="291.228"/>
	<rect x="272.305" y="146.962" fill="#3D3D3D" width="5.391" height="144.266"/>
	<rect x="247.305" y="146.962" fill="#3D3D3D" width="5.391" height="144.266"/>
	<rect x="197.305" y="146.962" fill="#3D3D3D" width="5.391" height="144.266"/>
	<rect x="172.305" y="146.962" fill="#3D3D3D" width="5.391" height="144.266"/>
	<rect x="150" y="70.786" fill="#3D3D3D" width="147.302" height="5.391"/>
	<rect x="2.697" y="222.652" fill="#3D3D3D" width="147.303" height="5.391"/>
	<path fill="#3D3D3D" d="M75,7.547l67.297,65.934L75,139.416L7.703,73.481L75,7.547z M75,0L0,73.481l75,73.481l75-73.481L75,0z"/>
	<path fill="#3D3D3D" d="M294.608,5.391v283.144H151.249l-73.877-36.191L75,251.181l-2.372,1.162L5.391,285.281V5.391H294.608z
		 M300,0H0v293.925l75-36.74l75,36.74h150V0z"/>
</g>
</svg>
